<svg xmlns="http://www.w3.org/2000/svg" viewBox="0 0 640 420" fill="none">
  <defs>
    <linearGradient id="bg3" x1="0" y1="420" x2="640" y2="0" gradientUnits="userSpaceOnUse">
      <stop stop-color="#111b21"/>
      <stop offset="1" stop-color="#128c7e"/>
    </linearGradient>
    <linearGradient id="bar" x1="0" y1="0" x2="0" y2="1">
      <stop stop-color="#25d366"/>
      <stop offset="1" stop-color="#075e54"/>
    </linearGradient>
    <filter id="shadow3" x="-20%" y="-20%" width="140%" height="140%">
      <feDropShadow dx="0" dy="16" stdDeviation="22" flood-color="#000" flood-opacity="0.35"/>
    </filter>
  </defs>
  <rect width="640" height="420" rx="28" fill="url(#bg3)"/>
  <circle cx="520" cy="80" r="64" fill="#25d366" opacity="0.15"/>
  <g filter="url(#shadow3)">
    <rect x="80" y="52" width="480" height="316" rx="22" fill="#ffffff"/>
    <rect x="104" y="76" width="160" height="14" rx="7" fill="#075e54"/>
    <rect x="104" y="108" width="432" height="180" rx="16" fill="#f6faf8" stroke="#e8edf2"/>
    <rect x="136" y="228" width="48" height="36" rx="8" fill="url(#bar)"/>
    <rect x="204" y="196" width="48" height="68" rx="8" fill="url(#bar)" opacity="0.85"/>
    <rect x="272" y="168" width="48" height="96" rx="8" fill="url(#bar)"/>
    <rect x="340" y="184" width="48" height="80" rx="8" fill="url(#bar)" opacity="0.9"/>
    <rect x="408" y="152" width="48" height="112" rx="8" fill="#25d366"/>
    <rect x="476" y="176" width="48" height="88" rx="8" fill="url(#bar)" opacity="0.75"/>
    <rect x="104" y="308" width="130" height="36" rx="12" fill="#d9fdd3"/>
    <rect x="250" y="308" width="130" height="36" rx="12" fill="#f6faf8" stroke="#e8edf2"/>
    <rect x="396" y="308" width="140" height="36" rx="12" fill="#075e54" opacity="0.08"/>
  </g>
</svg>
